<svg width="1142" height="363" viewBox="0 0 1142 363" fill="none" xmlns="http://www.w3.org/2000/svg">
<g clip-path="url(#clip0)">
<g opacity="0.8">
<path d="M205.619 77.0888C214.801 81.9741 242.899 71.32 251.123 56.0643C259.321 40.7119 244.544 26.5609 235.433 21.5531C226.251 16.6678 212.159 25.1127 203.936 40.3685C195.738 55.7208 196.508 72.081 205.619 77.0888Z" fill="#0500FF"/>
</g>
<g opacity="0.8">
<path d="M98.1035 229.761C111.754 280.577 218.122 311.471 268.544 297.927C318.967 284.382 358.272 214.357 344.622 163.541C330.971 112.725 300.53 83.9888 236.348 142.535C197.684 177.84 84.4531 178.945 98.1035 229.761Z" fill="#E0DDFF"/>
</g>
</g>
<g opacity="0.8">
<path d="M354.394 111.11C357.463 108.732 358.135 97.5325 354.199 92.3971C350.225 87.2556 343.145 90.1218 340.045 92.458C336.976 94.8369 337.695 100.928 341.631 106.064C345.605 111.205 351.294 113.447 354.394 111.11Z" fill="#0500FF"/>
</g>
<path d="M166.909 339.382C183.462 348.188 234.115 328.982 248.941 301.48C263.72 273.803 237.08 248.293 220.655 239.265C204.103 230.458 178.699 245.682 163.874 273.184C149.095 300.86 150.485 330.354 166.909 339.382Z" fill="#FECEBF"/>
<path d="M1049.81 299.762C1093.76 287.986 1120.54 196.02 1108.85 152.41C1097.17 108.799 1036.63 74.7721 992.681 86.5488C948.73 98.3254 923.864 124.634 974.458 180.167C1004.97 213.622 1005.86 311.539 1049.81 299.762Z" fill="#0500FF"/>
<path d="M825.353 249.718C823.959 260.025 843.702 282.679 860.864 285.096C878.107 287.456 886.25 268.687 887.784 258.404C889.179 248.097 876.369 237.812 859.207 235.395C841.964 233.035 826.888 239.435 825.353 249.718Z" fill="#FECEBF"/>
<path d="M1084.34 333.011C1083.46 339.513 1095.92 353.805 1106.75 355.331C1117.63 356.819 1122.76 344.978 1123.73 338.49C1124.61 331.988 1116.53 325.5 1105.7 323.974C1094.82 322.485 1085.31 326.523 1084.34 333.011Z" fill="#0500FF"/>
<g clip-path="url(#clip1)">
<path d="M1071.45 176.402C1055.42 159.74 1011.42 167.612 978.878 185.112C946.334 202.612 900.584 247.034 924.063 290.674C933.214 307.675 963.357 333.347 1027.24 287.577C1062.75 262.179 1093.61 199.385 1071.45 176.402Z" fill="#DDFFEF"/>
</g>
<path d="M991.589 348.159C992.512 342.414 981.815 329.694 972.289 328.055C962.802 326.53 958.041 336.881 957.08 342.513C956.157 348.258 963.085 354.074 972.685 355.56C982.211 357.198 990.628 353.791 991.589 348.159Z" fill="#DDFFEF"/>
<defs>
<clipPath id="clip0">
<rect width="313" height="272.1" fill="white" transform="translate(0.0633545 81.2578) rotate(-15.0359)"/>
</clipPath>
<clipPath id="clip1">
<rect width="179.581" height="140.679" fill="white" transform="translate(1111.63 285.997) rotate(160.977)"/>
</clipPath>
</defs>
</svg>
